# Wavefront OBJ file automatically generated by Tiled2Unity

# Vertices (Count = 336)
v 0 -1.6 0
v -1.6 -1.6 0
v -1.6 0 0
v 0 0 0
v -3.2 -1.6 0
v -3.2 0 0
v -4.8 -1.6 0
v -4.8 0 0
v -6.4 -1.6 0
v -6.4 0 0
v -8 -1.6 0
v -8 0 0
v -9.6 -1.6 0
v -9.6 0 0
v -11.2 -1.6 0
v -11.2 0 0
v -12.8 -1.6 0
v -12.8 0 0
v -14.4 -1.6 0
v -14.4 0 0
v -16 -1.6 0
v -16 0 0
v -17.6 -1.6 0
v -17.6 0 0
v -19.2 -1.6 0
v -19.2 0 0
v -20.8 -1.6 0
v -20.8 0 0
v -22.4 -1.6 0
v -22.4 0 0
v -24 -1.6 0
v -24 0 0
v -25.6 -1.6 0
v -25.6 0 0
v -27.2 -1.6 0
v -27.2 0 0
v -28.8 -1.6 0
v -28.8 0 0
v -30.4 -1.6 0
v -30.4 0 0
v -32 -1.6 0
v -32 0 0
v 0 -3.2 0
v -1.6 -3.2 0
v -3.2 -3.2 0
v -4.8 -3.2 0
v -6.4 -3.2 0
v -8 -3.2 0
v -9.6 -3.2 0
v -11.2 -3.2 0
v -12.8 -3.2 0
v -14.4 -3.2 0
v -16 -3.2 0
v -17.6 -3.2 0
v -19.2 -3.2 0
v -20.8 -3.2 0
v -22.4 -3.2 0
v -24 -3.2 0
v -25.6 -3.2 0
v -27.2 -3.2 0
v -28.8 -3.2 0
v -30.4 -3.2 0
v -32 -3.2 0
v 0 -4.8 0
v -1.6 -4.8 0
v -3.2 -4.8 0
v -4.8 -4.8 0
v -6.4 -4.8 0
v -8 -4.8 0
v -9.6 -4.8 0
v -11.2 -4.8 0
v -12.8 -4.8 0
v -14.4 -4.8 0
v -16 -4.8 0
v -17.6 -4.8 0
v -19.2 -4.8 0
v -20.8 -4.8 0
v -22.4 -4.8 0
v -24 -4.8 0
v -25.6 -4.8 0
v -27.2 -4.8 0
v -28.8 -4.8 0
v -30.4 -4.8 0
v -32 -4.8 0
v 0 -6.4 0
v -1.6 -6.4 0
v -3.2 -6.4 0
v -4.8 -6.4 0
v -6.4 -6.4 0
v -8 -6.4 0
v -9.6 -6.4 0
v -11.2 -6.4 0
v -12.8 -6.4 0
v -14.4 -6.4 0
v -16 -6.4 0
v -17.6 -6.4 0
v -19.2 -6.4 0
v -20.8 -6.4 0
v -22.4 -6.4 0
v -24 -6.4 0
v -25.6 -6.4 0
v -27.2 -6.4 0
v -28.8 -6.4 0
v -30.4 -6.4 0
v -32 -6.4 0
v 0 -8 0
v -1.6 -8 0
v -3.2 -8 0
v -4.8 -8 0
v -6.4 -8 0
v -8 -8 0
v -9.6 -8 0
v -11.2 -8 0
v -12.8 -8 0
v -14.4 -8 0
v -16 -8 0
v -17.6 -8 0
v -19.2 -8 0
v -20.8 -8 0
v -22.4 -8 0
v -24 -8 0
v -25.6 -8 0
v -27.2 -8 0
v -28.8 -8 0
v -30.4 -8 0
v -32 -8 0
v 0 -9.6 0
v -1.6 -9.6 0
v -3.2 -9.6 0
v -4.8 -9.6 0
v -6.4 -9.6 0
v -8 -9.6 0
v -9.6 -9.6 0
v -11.2 -9.6 0
v -12.8 -9.6 0
v -14.4 -9.6 0
v -16 -9.6 0
v -17.6 -9.6 0
v -19.2 -9.6 0
v -20.8 -9.6 0
v -22.4 -9.6 0
v -24 -9.6 0
v -25.6 -9.6 0
v -27.2 -9.6 0
v -28.8 -9.6 0
v -30.4 -9.6 0
v -32 -9.6 0
v 0 -11.2 0
v -1.6 -11.2 0
v -3.2 -11.2 0
v -4.8 -11.2 0
v -6.4 -11.2 0
v -8 -11.2 0
v -9.6 -11.2 0
v -11.2 -11.2 0
v -12.8 -11.2 0
v -14.4 -11.2 0
v -16 -11.2 0
v -17.6 -11.2 0
v -19.2 -11.2 0
v -20.8 -11.2 0
v -22.4 -11.2 0
v -24 -11.2 0
v -25.6 -11.2 0
v -27.2 -11.2 0
v -28.8 -11.2 0
v -30.4 -11.2 0
v -32 -11.2 0
v 0 -12.8 0
v -1.6 -12.8 0
v -3.2 -12.8 0
v -4.8 -12.8 0
v -6.4 -12.8 0
v -8 -12.8 0
v -9.6 -12.8 0
v -11.2 -12.8 0
v -12.8 -12.8 0
v -14.4 -12.8 0
v -16 -12.8 0
v -17.6 -12.8 0
v -19.2 -12.8 0
v -20.8 -12.8 0
v -22.4 -12.8 0
v -24 -12.8 0
v -25.6 -12.8 0
v -27.2 -12.8 0
v -28.8 -12.8 0
v -30.4 -12.8 0
v -32 -12.8 0
v 0 -14.4 0
v -1.6 -14.4 0
v -3.2 -14.4 0
v -4.8 -14.4 0
v -6.4 -14.4 0
v -8 -14.4 0
v -9.6 -14.4 0
v -11.2 -14.4 0
v -12.8 -14.4 0
v -14.4 -14.4 0
v -16 -14.4 0
v -17.6 -14.4 0
v -19.2 -14.4 0
v -20.8 -14.4 0
v -22.4 -14.4 0
v -24 -14.4 0
v -25.6 -14.4 0
v -27.2 -14.4 0
v -28.8 -14.4 0
v -30.4 -14.4 0
v -32 -14.4 0
v 0 -16 0
v -1.6 -16 0
v -3.2 -16 0
v -4.8 -16 0
v -6.4 -16 0
v -8 -16 0
v -9.6 -16 0
v -11.2 -16 0
v -12.8 -16 0
v -14.4 -16 0
v -16 -16 0
v -17.6 -16 0
v -19.2 -16 0
v -20.8 -16 0
v -22.4 -16 0
v -24 -16 0
v -25.6 -16 0
v -27.2 -16 0
v -28.8 -16 0
v -30.4 -16 0
v -32 -16 0
v 0 -17.6 0
v -1.6 -17.6 0
v -3.2 -17.6 0
v -4.8 -17.6 0
v -6.4 -17.6 0
v -8 -17.6 0
v -9.6 -17.6 0
v -11.2 -17.6 0
v -12.8 -17.6 0
v -14.4 -17.6 0
v -16 -17.6 0
v -17.6 -17.6 0
v -19.2 -17.6 0
v -20.8 -17.6 0
v -22.4 -17.6 0
v -24 -17.6 0
v -25.6 -17.6 0
v -27.2 -17.6 0
v -28.8 -17.6 0
v -30.4 -17.6 0
v -32 -17.6 0
v 0 -19.2 0
v -1.6 -19.2 0
v -3.2 -19.2 0
v -4.8 -19.2 0
v -6.4 -19.2 0
v -8 -19.2 0
v -9.6 -19.2 0
v -11.2 -19.2 0
v -12.8 -19.2 0
v -14.4 -19.2 0
v -16 -19.2 0
v -17.6 -19.2 0
v -19.2 -19.2 0
v -20.8 -19.2 0
v -22.4 -19.2 0
v -24 -19.2 0
v -25.6 -19.2 0
v -27.2 -19.2 0
v -28.8 -19.2 0
v -30.4 -19.2 0
v -32 -19.2 0
v 0 -20.8 0
v -1.6 -20.8 0
v -3.2 -20.8 0
v -4.8 -20.8 0
v -6.4 -20.8 0
v -8 -20.8 0
v -9.6 -20.8 0
v -11.2 -20.8 0
v -12.8 -20.8 0
v -14.4 -20.8 0
v -16 -20.8 0
v -17.6 -20.8 0
v -19.2 -20.8 0
v -20.8 -20.8 0
v -22.4 -20.8 0
v -24 -20.8 0
v -25.6 -20.8 0
v -27.2 -20.8 0
v -28.8 -20.8 0
v -30.4 -20.8 0
v -32 -20.8 0
v 0 -22.4 0
v -1.6 -22.4 0
v -3.2 -22.4 0
v -4.8 -22.4 0
v -6.4 -22.4 0
v -8 -22.4 0
v -9.6 -22.4 0
v -11.2 -22.4 0
v -12.8 -22.4 0
v -14.4 -22.4 0
v -16 -22.4 0
v -17.6 -22.4 0
v -19.2 -22.4 0
v -20.8 -22.4 0
v -22.4 -22.4 0
v -24 -22.4 0
v -25.6 -22.4 0
v -27.2 -22.4 0
v -28.8 -22.4 0
v -30.4 -22.4 0
v -32 -22.4 0
v 0 -24 0
v -1.6 -24 0
v -3.2 -24 0
v -4.8 -24 0
v -6.4 -24 0
v -8 -24 0
v -9.6 -24 0
v -11.2 -24 0
v -12.8 -24 0
v -14.4 -24 0
v -16 -24 0
v -17.6 -24 0
v -19.2 -24 0
v -20.8 -24 0
v -22.4 -24 0
v -24 -24 0
v -25.6 -24 0
v -27.2 -24 0
v -28.8 -24 0
v -30.4 -24 0
v -32 -24 0

# Texture cooridinates (Count = 164)
vt 0.128424 0.6684638
vt 0.2489345 0.6684638
vt 0.2489345 0.8290237
vt 0.128424 0.8290237
vt 0.2529522 0.6684638
vt 0.3734628 0.6684638
vt 0.3734628 0.8290237
vt 0.2529522 0.8290237
vt 0.003895655 0.005147196
vt 0.1244062 0.005147196
vt 0.1244062 0.1657071
vt 0.003895655 0.1657071
vt 0.128424 0.005147196
vt 0.2489345 0.005147196
vt 0.2489345 0.1657071
vt 0.128424 0.1657071
vt 0.2529522 0.005147196
vt 0.3734628 0.005147196
vt 0.3734628 0.1657071
vt 0.2529522 0.1657071
vt 0.6265371 0.5026346
vt 0.7470477 0.5026346
vt 0.7470477 0.6631945
vt 0.6265371 0.6631945
vt 0.8755938 0.5026346
vt 0.9961044 0.5026346
vt 0.9961044 0.6631945
vt 0.8755938 0.6631945
vt 0.003895655 0.1709763
vt 0.1244062 0.1709763
vt 0.1244062 0.3315362
vt 0.003895655 0.3315362
vt 0.2529522 0.1709763
vt 0.3734628 0.1709763
vt 0.3734628 0.3315362
vt 0.2529522 0.3315362
vt 0.6265371 0.8342929
vt 0.7470477 0.8342929
vt 0.7470477 0.9948528
vt 0.6265371 0.9948528
vt 0.7510655 0.8342929
vt 0.8715761 0.8342929
vt 0.8715761 0.9948528
vt 0.7510655 0.9948528
vt 0.5020089 0.6684638
vt 0.6225194 0.6684638
vt 0.6225194 0.8290237
vt 0.5020089 0.8290237
vt 0.3774806 0.6684638
vt 0.4979911 0.6684638
vt 0.4979911 0.8290237
vt 0.3774806 0.8290237
vt 0.8755938 0.8342929
vt 0.9961044 0.8342929
vt 0.9961044 0.9948528
vt 0.8755938 0.9948528
vt 0.003895655 0.6684638
vt 0.1244062 0.6684638
vt 0.1244062 0.8290237
vt 0.003895655 0.8290237
vt 0.3774806 0.5026346
vt 0.4979911 0.5026346
vt 0.4979911 0.6631945
vt 0.3774806 0.6631945
vt 0.6265371 0.3368055
vt 0.7470477 0.3368055
vt 0.7470477 0.4973654
vt 0.6265371 0.4973654
vt 0.003895655 0.3368055
vt 0.1244062 0.3368055
vt 0.1244062 0.4973654
vt 0.003895655 0.4973654
vt 0.128424 0.3368055
vt 0.2489345 0.3368055
vt 0.2489345 0.4973654
vt 0.128424 0.4973654
vt 0.2529522 0.3368055
vt 0.3734628 0.3368055
vt 0.3734628 0.4973654
vt 0.2529522 0.4973654
vt 0.7510655 0.5026346
vt 0.8715761 0.5026346
vt 0.8715761 0.6631945
vt 0.7510655 0.6631945
vt 0.5020089 0.8342929
vt 0.6225194 0.8342929
vt 0.6225194 0.9948528
vt 0.5020089 0.9948528
vt 0.3774806 0.8342929
vt 0.4979911 0.8342929
vt 0.4979911 0.9948528
vt 0.3774806 0.9948528
vt 0.003895655 0.5026346
vt 0.1244062 0.5026346
vt 0.1244062 0.6631945
vt 0.003895655 0.6631945
vt 0.2529522 0.5026346
vt 0.3734628 0.5026346
vt 0.3734628 0.6631945
vt 0.2529522 0.6631945
vt 0.6265371 0.005147196
vt 0.7470477 0.005147196
vt 0.7470477 0.1657071
vt 0.6265371 0.1657071
vt 0.3774806 0.1709763
vt 0.4979911 0.1709763
vt 0.4979911 0.3315362
vt 0.3774806 0.3315362
vt 0.003895655 0.8342929
vt 0.1244062 0.8342929
vt 0.1244062 0.9948528
vt 0.003895655 0.9948528
vt 0.2529522 0.8342929
vt 0.3734628 0.8342929
vt 0.3734628 0.9948528
vt 0.2529522 0.9948528
vt 0.128424 0.8342929
vt 0.2489345 0.8342929
vt 0.2489345 0.9948528
vt 0.128424 0.9948528
vt 0.5020089 0.3368055
vt 0.6225194 0.3368055
vt 0.6225194 0.4973654
vt 0.5020089 0.4973654
vt 0.3774806 0.005147196
vt 0.4979911 0.005147196
vt 0.4979911 0.1657071
vt 0.3774806 0.1657071
vt 0.5020089 0.5026346
vt 0.6225194 0.5026346
vt 0.6225194 0.6631945
vt 0.5020089 0.6631945
vt 0.5020089 0.005147196
vt 0.6225194 0.005147196
vt 0.6225194 0.1657071
vt 0.5020089 0.1657071
vt 0.128424 0.1709763
vt 0.2489345 0.1709763
vt 0.2489345 0.3315362
vt 0.128424 0.3315362
vt 0.5020089 0.1709763
vt 0.6225194 0.1709763
vt 0.6225194 0.3315362
vt 0.5020089 0.3315362
vt 0.6265371 0.6684638
vt 0.7470477 0.6684638
vt 0.7470477 0.8290237
vt 0.6265371 0.8290237
vt 0.8755938 0.6684638
vt 0.9961044 0.6684638
vt 0.9961044 0.8290237
vt 0.8755938 0.8290237
vt 0.8755938 0.3368055
vt 0.9961044 0.3368055
vt 0.9961044 0.4973654
vt 0.8755938 0.4973654
vt 0.7510655 0.3368055
vt 0.8715761 0.3368055
vt 0.8715761 0.4973654
vt 0.7510655 0.4973654
vt 0.3774806 0.3368055
vt 0.4979911 0.3368055
vt 0.4979911 0.4973654
vt 0.3774806 0.4973654

# Normal
vn 0 0 -1

# Groups (Count = 1)

g mesh_0001
f 1/1/1 2/2/1 3/3/1 4/4/1
f 2/1/1 5/2/1 6/3/1 3/4/1
f 5/5/1 7/6/1 8/7/1 6/8/1
f 7/9/1 9/10/1 10/11/1 8/12/1
f 9/13/1 11/14/1 12/15/1 10/16/1
f 11/17/1 13/18/1 14/19/1 12/20/1
f 13/21/1 15/22/1 16/23/1 14/24/1
f 15/25/1 17/26/1 18/27/1 16/28/1
f 17/29/1 19/30/1 20/31/1 18/32/1
f 19/33/1 21/34/1 22/35/1 20/36/1
f 21/37/1 23/38/1 24/39/1 22/40/1
f 23/41/1 25/42/1 26/43/1 24/44/1
f 25/45/1 27/46/1 28/47/1 26/48/1
f 27/49/1 29/50/1 30/51/1 28/52/1
f 29/53/1 31/54/1 32/55/1 30/56/1
f 31/57/1 33/58/1 34/59/1 32/60/1
f 33/61/1 35/62/1 36/63/1 34/64/1
f 35/65/1 37/66/1 38/67/1 36/68/1
f 37/65/1 39/66/1 40/67/1 38/68/1
f 39/65/1 41/66/1 42/67/1 40/68/1
f 43/65/1 44/66/1 2/67/1 1/68/1
f 44/65/1 45/66/1 5/67/1 2/68/1
f 45/65/1 46/66/1 7/67/1 5/68/1
f 46/53/1 47/54/1 9/55/1 7/56/1
f 47/69/1 48/70/1 11/71/1 9/72/1
f 48/73/1 49/74/1 13/75/1 11/76/1
f 49/73/1 50/74/1 15/75/1 13/76/1
f 50/77/1 51/78/1 17/79/1 15/80/1
f 51/9/1 52/10/1 19/11/1 17/12/1
f 52/17/1 53/18/1 21/19/1 19/20/1
f 53/21/1 54/22/1 23/23/1 21/24/1
f 54/81/1 55/82/1 25/83/1 23/84/1
f 55/85/1 56/86/1 27/87/1 25/88/1
f 56/89/1 57/90/1 29/91/1 27/92/1
f 57/25/1 58/26/1 31/27/1 29/28/1
f 58/93/1 59/94/1 33/95/1 31/96/1
f 59/97/1 60/98/1 35/99/1 33/100/1
f 60/65/1 61/66/1 37/67/1 35/68/1
f 61/101/1 62/102/1 39/103/1 37/104/1
f 62/65/1 63/66/1 41/67/1 39/68/1
f 64/65/1 65/66/1 44/67/1 43/68/1
f 65/65/1 66/66/1 45/67/1 44/68/1
f 66/65/1 67/66/1 46/67/1 45/68/1
f 67/25/1 68/26/1 47/27/1 46/28/1
f 68/29/1 69/30/1 48/31/1 47/32/1
f 69/105/1 70/106/1 49/107/1 48/108/1
f 70/13/1 71/14/1 50/15/1 49/16/1
f 71/17/1 72/18/1 51/19/1 50/20/1
f 72/69/1 73/70/1 52/71/1 51/72/1
f 73/77/1 74/78/1 53/79/1 52/80/1
f 74/69/1 75/70/1 54/71/1 53/72/1
f 75/77/1 76/78/1 55/79/1 54/80/1
f 76/21/1 77/22/1 56/23/1 55/24/1
f 77/25/1 78/26/1 57/27/1 56/28/1
f 78/109/1 79/110/1 58/111/1 57/112/1
f 79/113/1 80/114/1 59/115/1 58/116/1
f 80/69/1 81/70/1 60/71/1 59/72/1
f 81/77/1 82/78/1 61/79/1 60/80/1
f 82/69/1 83/70/1 62/71/1 61/72/1
f 83/77/1 84/78/1 63/79/1 62/80/1
f 85/65/1 86/66/1 65/67/1 64/68/1
f 86/69/1 87/70/1 66/71/1 65/72/1
f 87/73/1 88/74/1 67/75/1 66/76/1
f 88/77/1 89/78/1 68/79/1 67/80/1
f 89/9/1 90/10/1 69/11/1 68/12/1
f 90/17/1 91/18/1 70/19/1 69/20/1
f 91/109/1 92/110/1 71/111/1 70/112/1
f 92/113/1 93/114/1 72/115/1 71/116/1
f 93/9/1 94/10/1 73/11/1 72/12/1
f 94/17/1 95/18/1 74/19/1 73/20/1
f 95/29/1 96/30/1 75/31/1 74/32/1
f 96/33/1 97/34/1 76/35/1 75/36/1
f 97/109/1 98/110/1 77/111/1 76/112/1
f 98/117/1 99/118/1 78/119/1 77/120/1
f 99/121/1 100/122/1 79/123/1 78/124/1
f 100/5/1 101/6/1 80/7/1 79/8/1
f 101/9/1 102/10/1 81/11/1 80/12/1
f 102/17/1 103/18/1 82/19/1 81/20/1
f 103/29/1 104/30/1 83/31/1 82/32/1
f 104/125/1 105/126/1 84/127/1 83/128/1
f 106/65/1 107/66/1 86/67/1 85/68/1
f 107/29/1 108/30/1 87/31/1 86/32/1
f 108/105/1 109/106/1 88/107/1 87/108/1
f 109/17/1 110/18/1 89/19/1 88/20/1
f 110/109/1 111/110/1 90/111/1 89/112/1
f 111/113/1 112/114/1 91/115/1 90/116/1
f 112/93/1 113/94/1 92/95/1 91/96/1
f 113/97/1 114/98/1 93/99/1 92/100/1
f 114/109/1 115/110/1 94/111/1 93/112/1
f 115/113/1 116/114/1 95/115/1 94/116/1
f 116/29/1 117/30/1 96/31/1 95/32/1
f 117/33/1 118/34/1 97/35/1 96/36/1
f 118/57/1 119/58/1 98/59/1 97/60/1
f 119/61/1 120/62/1 99/63/1 98/64/1
f 120/129/1 121/130/1 100/131/1 99/132/1
f 121/5/1 122/6/1 101/7/1 100/8/1
f 122/69/1 123/70/1 102/71/1 101/72/1
f 123/73/1 124/74/1 103/75/1 102/76/1
f 124/133/1 125/134/1 104/135/1 103/136/1
f 125/137/1 126/138/1 105/139/1 104/140/1
f 127/65/1 128/66/1 107/67/1 106/68/1
f 128/29/1 129/30/1 108/31/1 107/32/1
f 129/125/1 130/126/1 109/127/1 108/128/1
f 130/77/1 131/78/1 110/79/1 109/80/1
f 131/93/1 132/94/1 111/95/1 110/96/1
f 132/97/1 133/98/1 112/99/1 111/100/1
f 133/37/1 134/38/1 113/39/1 112/40/1
f 134/53/1 135/54/1 114/55/1 113/56/1
f 135/93/1 136/94/1 115/95/1 114/96/1
f 136/97/1 137/98/1 116/99/1 115/100/1
f 137/9/1 138/10/1 117/11/1 116/12/1
f 138/17/1 139/18/1 118/19/1 117/20/1
f 139/93/1 140/94/1 119/95/1 118/96/1
f 140/97/1 141/98/1 120/99/1 119/100/1
f 141/93/1 142/94/1 121/95/1 120/96/1
f 142/97/1 143/98/1 122/99/1 121/100/1
f 143/29/1 144/30/1 123/31/1 122/32/1
f 144/137/1 145/138/1 124/139/1 123/140/1
f 145/137/1 146/138/1 125/139/1 124/140/1
f 146/137/1 147/138/1 126/139/1 125/140/1
f 148/73/1 149/74/1 128/75/1 127/76/1
f 149/133/1 150/134/1 129/135/1 128/136/1
f 150/137/1 151/138/1 130/139/1 129/140/1
f 151/125/1 152/126/1 131/127/1 130/128/1
f 152/73/1 153/74/1 132/75/1 131/76/1
f 153/77/1 154/78/1 133/79/1 132/80/1
f 154/21/1 155/22/1 134/23/1 133/24/1
f 155/69/1 156/70/1 135/71/1 134/72/1
f 156/73/1 157/74/1 136/75/1 135/76/1
f 157/77/1 158/78/1 137/79/1 136/80/1
f 158/37/1 159/38/1 138/39/1 137/40/1
f 159/53/1 160/54/1 139/55/1 138/56/1
f 160/69/1 161/70/1 140/71/1 139/72/1
f 161/77/1 162/78/1 141/79/1 140/80/1
f 162/37/1 163/38/1 142/39/1 141/40/1
f 163/53/1 164/54/1 143/55/1 142/56/1
f 164/29/1 165/30/1 144/31/1 143/32/1
f 165/137/1 166/138/1 145/139/1 144/140/1
f 166/137/1 167/138/1 146/139/1 145/140/1
f 167/137/1 168/138/1 147/139/1 146/140/1
f 169/137/1 170/138/1 149/139/1 148/140/1
f 170/137/1 171/138/1 150/139/1 149/140/1
f 171/105/1 172/106/1 151/107/1 150/108/1
f 172/141/1 173/142/1 152/143/1 151/144/1
f 173/105/1 174/106/1 153/107/1 152/108/1
f 174/17/1 175/18/1 154/19/1 153/20/1
f 175/53/1 176/54/1 155/55/1 154/56/1
f 176/9/1 177/10/1 156/11/1 155/12/1
f 177/13/1 178/14/1 157/15/1 156/16/1
f 178/17/1 179/18/1 158/19/1 157/20/1
f 179/145/1 180/146/1 159/147/1 158/148/1
f 180/149/1 181/150/1 160/151/1 159/152/1
f 181/9/1 182/10/1 161/11/1 160/12/1
f 182/17/1 183/18/1 162/19/1 161/20/1
f 183/145/1 184/146/1 163/147/1 162/148/1
f 184/149/1 185/150/1 164/151/1 163/152/1
f 185/29/1 186/30/1 165/31/1 164/32/1
f 186/137/1 187/138/1 166/139/1 165/140/1
f 187/137/1 188/138/1 167/139/1 166/140/1
f 188/137/1 189/138/1 168/139/1 167/140/1
f 190/137/1 191/138/1 170/139/1 169/140/1
f 191/137/1 192/138/1 171/139/1 170/140/1
f 192/33/1 193/34/1 172/35/1 171/36/1
f 193/9/1 194/10/1 173/11/1 172/12/1
f 194/17/1 195/18/1 174/19/1 173/20/1
f 195/21/1 196/22/1 175/23/1 174/24/1
f 196/25/1 197/26/1 176/27/1 175/28/1
f 197/69/1 198/70/1 177/71/1 176/72/1
f 198/77/1 199/78/1 178/79/1 177/80/1
f 199/37/1 200/38/1 179/39/1 178/40/1
f 200/45/1 201/46/1 180/47/1 179/48/1
f 201/149/1 202/150/1 181/151/1 180/152/1
f 202/69/1 203/70/1 182/71/1 181/72/1
f 203/77/1 204/78/1 183/79/1 182/80/1
f 204/145/1 205/146/1 184/147/1 183/148/1
f 205/149/1 206/150/1 185/151/1 184/152/1
f 206/29/1 207/30/1 186/31/1 185/32/1
f 207/137/1 208/138/1 187/139/1 186/140/1
f 208/137/1 209/138/1 188/139/1 187/140/1
f 209/137/1 210/138/1 189/139/1 188/140/1
f 211/137/1 212/138/1 191/139/1 190/140/1
f 212/137/1 213/138/1 192/139/1 191/140/1
f 213/33/1 214/34/1 193/35/1 192/36/1
f 214/153/1 215/154/1 194/155/1 193/156/1
f 215/65/1 216/66/1 195/67/1 194/68/1
f 216/69/1 217/70/1 196/71/1 195/72/1
f 217/73/1 218/74/1 197/75/1 196/76/1
f 218/133/1 219/134/1 198/135/1 197/136/1
f 219/125/1 220/126/1 199/127/1 198/128/1
f 220/73/1 221/74/1 200/75/1 199/76/1
f 221/77/1 222/78/1 201/79/1 200/80/1
f 222/25/1 223/26/1 202/27/1 201/28/1
f 223/29/1 224/30/1 203/31/1 202/32/1
f 224/33/1 225/34/1 204/35/1 203/36/1
f 225/21/1 226/22/1 205/23/1 204/24/1
f 226/25/1 227/26/1 206/27/1 205/28/1
f 227/9/1 228/10/1 207/11/1 206/12/1
f 228/141/1 229/142/1 208/143/1 207/144/1
f 229/137/1 230/138/1 209/139/1 208/140/1
f 230/137/1 231/138/1 210/139/1 209/140/1
f 232/13/1 233/14/1 212/15/1 211/16/1
f 233/141/1 234/142/1 213/143/1 212/144/1
f 234/125/1 235/126/1 214/127/1 213/128/1
f 235/73/1 236/74/1 215/75/1 214/76/1
f 236/77/1 237/78/1 216/79/1 215/80/1
f 237/29/1 238/30/1 217/31/1 216/32/1
f 238/105/1 239/106/1 218/107/1 217/108/1
f 239/13/1 240/14/1 219/15/1 218/16/1
f 240/13/1 241/14/1 220/15/1 219/16/1
f 241/141/1 242/142/1 221/143/1 220/144/1
f 242/33/1 243/34/1 222/35/1 221/36/1
f 243/69/1 244/70/1 223/71/1 222/72/1
f 244/133/1 245/134/1 224/135/1 223/136/1
f 245/125/1 246/126/1 225/127/1 224/128/1
f 246/77/1 247/78/1 226/79/1 225/80/1
f 247/109/1 248/110/1 227/111/1 226/112/1
f 248/113/1 249/114/1 228/115/1 227/116/1
f 249/29/1 250/30/1 229/31/1 228/32/1
f 250/137/1 251/138/1 230/139/1 229/140/1
f 251/137/1 252/138/1 231/139/1 230/140/1
f 253/65/1 254/66/1 233/67/1 232/68/1
f 254/9/1 255/10/1 234/11/1 233/12/1
f 255/13/1 256/14/1 235/15/1 234/16/1
f 256/13/1 257/14/1 236/15/1 235/16/1
f 257/17/1 258/18/1 237/19/1 236/20/1
f 258/9/1 259/10/1 238/11/1 237/12/1
f 259/17/1 260/18/1 239/19/1 238/20/1
f 260/37/1 261/38/1 240/39/1 239/40/1
f 261/53/1 262/54/1 241/55/1 240/56/1
f 262/9/1 263/10/1 242/11/1 241/12/1
f 263/17/1 264/18/1 243/19/1 242/20/1
f 264/9/1 265/10/1 244/11/1 243/12/1
f 265/13/1 266/14/1 245/15/1 244/16/1
f 266/13/1 267/14/1 246/15/1 245/16/1
f 267/17/1 268/18/1 247/19/1 246/20/1
f 268/57/1 269/58/1 248/59/1 247/60/1
f 269/5/1 270/6/1 249/7/1 248/8/1
f 270/29/1 271/30/1 250/31/1 249/32/1
f 271/137/1 272/138/1 251/139/1 250/140/1
f 272/137/1 273/138/1 252/139/1 251/140/1
f 274/65/1 275/66/1 254/67/1 253/68/1
f 275/113/1 276/114/1 255/115/1 254/116/1
f 276/21/1 277/22/1 256/23/1 255/24/1
f 277/25/1 278/26/1 257/27/1 256/28/1
f 278/109/1 279/110/1 258/111/1 257/112/1
f 279/113/1 280/114/1 259/115/1 258/116/1
f 280/65/1 281/66/1 260/67/1 259/68/1
f 281/21/1 282/22/1 261/23/1 260/24/1
f 282/25/1 283/26/1 262/27/1 261/28/1
f 283/157/1 284/158/1 263/159/1 262/160/1
f 284/69/1 285/70/1 264/71/1 263/72/1
f 285/77/1 286/78/1 265/79/1 264/80/1
f 286/65/1 287/66/1 266/67/1 265/68/1
f 287/65/1 288/66/1 267/67/1 266/68/1
f 288/109/1 289/110/1 268/111/1 267/112/1
f 289/121/1 290/122/1 269/123/1 268/124/1
f 290/5/1 291/6/1 270/7/1 269/8/1
f 291/29/1 292/30/1 271/31/1 270/32/1
f 292/137/1 293/138/1 272/139/1 271/140/1
f 293/137/1 294/138/1 273/139/1 272/140/1
f 295/65/1 296/66/1 275/67/1 274/68/1
f 296/161/1 297/162/1 276/163/1 275/164/1
f 297/117/1 298/118/1 277/119/1 276/120/1
f 298/117/1 299/118/1 278/119/1 277/120/1
f 299/121/1 300/122/1 279/123/1 278/124/1
f 300/161/1 301/162/1 280/163/1 279/164/1
f 301/113/1 302/114/1 281/115/1 280/116/1
f 302/69/1 303/70/1 282/71/1 281/72/1
f 303/73/1 304/74/1 283/75/1 282/76/1
f 304/73/1 305/74/1 284/75/1 283/76/1
f 305/133/1 306/134/1 285/135/1 284/136/1
f 306/125/1 307/126/1 286/127/1 285/128/1
f 307/73/1 308/74/1 287/75/1 286/76/1
f 308/77/1 309/78/1 288/79/1 287/80/1
f 309/57/1 310/58/1 289/59/1 288/60/1
f 310/61/1 311/62/1 290/63/1 289/64/1
f 311/97/1 312/98/1 291/99/1 290/100/1
f 312/29/1 313/30/1 292/31/1 291/32/1
f 313/137/1 314/138/1 293/139/1 292/140/1
f 314/137/1 315/138/1 294/139/1 293/140/1
f 316/65/1 317/66/1 296/67/1 295/68/1
f 317/1/1 318/2/1 297/3/1 296/4/1
f 318/1/1 319/2/1 298/3/1 297/4/1
f 319/1/1 320/2/1 299/3/1 298/4/1
f 320/1/1 321/2/1 300/3/1 299/4/1
f 321/1/1 322/2/1 301/3/1 300/4/1
f 322/5/1 323/6/1 302/7/1 301/8/1
f 323/29/1 324/30/1 303/31/1 302/32/1
f 324/137/1 325/138/1 304/139/1 303/140/1
f 325/137/1 326/138/1 305/139/1 304/140/1
f 326/137/1 327/138/1 306/139/1 305/140/1
f 327/137/1 328/138/1 307/139/1 306/140/1
f 328/137/1 329/138/1 308/139/1 307/140/1
f 329/33/1 330/34/1 309/35/1 308/36/1
f 330/93/1 331/94/1 310/95/1 309/96/1
f 331/97/1 332/98/1 311/99/1 310/100/1
f 332/69/1 333/70/1 312/71/1 311/72/1
f 333/133/1 334/134/1 313/135/1 312/136/1
f 334/137/1 335/138/1 314/139/1 313/140/1
f 335/137/1 336/138/1 315/139/1 314/140/1

